<svg xmlns="http://www.w3.org/2000/svg" xmlns:xlink="http://www.w3.org/1999/xlink" width="1280" zoomAndPan="magnify" viewBox="0 0 960 599.999999" height="800" preserveAspectRatio="xMidYMid meet" version="1.0"><defs><g/><clipPath id="6437535aa2"><path d="M 200.546875 170.089844 L 759.453125 170.089844 L 759.453125 429.910156 L 200.546875 429.910156 Z M 200.546875 170.089844 " clip-rule="nonzero"/></clipPath><clipPath id="6ef0d32774"><path d="M 222.507812 210.613281 L 387 210.613281 L 387 253.972656 L 222.507812 253.972656 Z M 222.507812 210.613281 " clip-rule="nonzero"/></clipPath><clipPath id="ca670ccb49"><path d="M 244.1875 210.613281 L 365.324219 210.613281 C 371.074219 210.613281 376.589844 212.898438 380.65625 216.964844 C 384.722656 221.03125 387.007812 226.542969 387.007812 232.292969 C 387.007812 238.042969 384.722656 243.558594 380.65625 247.625 C 376.589844 251.691406 371.074219 253.972656 365.324219 253.972656 L 244.1875 253.972656 C 238.4375 253.972656 232.921875 251.691406 228.855469 247.625 C 224.792969 243.558594 222.507812 238.042969 222.507812 232.292969 C 222.507812 226.542969 224.792969 221.03125 228.855469 216.964844 C 232.921875 212.898438 238.4375 210.613281 244.1875 210.613281 Z M 244.1875 210.613281 " clip-rule="nonzero"/></clipPath><clipPath id="7d0bd9b514"><path d="M 365.644531 210.757812 L 420.273438 210.757812 L 420.273438 253.972656 L 365.644531 253.972656 Z M 365.644531 210.757812 " clip-rule="nonzero"/></clipPath><clipPath id="3d8dc82704"><path d="M 222.507812 266.246094 L 299.742188 266.246094 L 299.742188 309.605469 L 222.507812 309.605469 Z M 222.507812 266.246094 " clip-rule="nonzero"/></clipPath><clipPath id="43ca23d8fb"><path d="M 244.1875 266.246094 L 278.058594 266.246094 C 283.808594 266.246094 289.324219 268.53125 293.390625 272.597656 C 297.457031 276.664062 299.738281 282.175781 299.738281 287.925781 C 299.738281 293.675781 297.457031 299.191406 293.390625 303.257812 C 289.324219 307.324219 283.808594 309.605469 278.058594 309.605469 L 244.1875 309.605469 C 238.4375 309.605469 232.921875 307.324219 228.855469 303.257812 C 224.792969 299.191406 222.507812 293.675781 222.507812 287.925781 C 222.507812 282.175781 224.792969 276.664062 228.855469 272.597656 C 232.921875 268.53125 238.4375 266.246094 244.1875 266.246094 Z M 244.1875 266.246094 " clip-rule="nonzero"/></clipPath><clipPath id="5c0b15a3bf"><path d="M 270.9375 266.390625 L 321.46875 266.390625 L 321.46875 309.605469 L 270.9375 309.605469 Z M 270.9375 266.390625 " clip-rule="nonzero"/></clipPath><clipPath id="b81cfda591"><path d="M 222.507812 321.605469 L 299.742188 321.605469 L 299.742188 364.96875 L 222.507812 364.96875 Z M 222.507812 321.605469 " clip-rule="nonzero"/></clipPath><clipPath id="f2eb523b79"><path d="M 244.1875 321.605469 L 278.058594 321.605469 C 283.808594 321.605469 289.324219 323.890625 293.390625 327.957031 C 297.457031 332.023438 299.738281 337.539062 299.738281 343.289062 C 299.738281 349.035156 297.457031 354.550781 293.390625 358.617188 C 289.324219 362.683594 283.808594 364.96875 278.058594 364.96875 L 244.1875 364.96875 C 238.4375 364.96875 232.921875 362.683594 228.855469 358.617188 C 224.792969 354.550781 222.507812 349.035156 222.507812 343.289062 C 222.507812 337.539062 224.792969 332.023438 228.855469 327.957031 C 232.921875 323.890625 238.4375 321.605469 244.1875 321.605469 Z M 244.1875 321.605469 " clip-rule="nonzero"/></clipPath><clipPath id="336420dd55"><path d="M 270.9375 321.75 L 321.46875 321.75 L 321.46875 364.96875 L 270.9375 364.96875 Z M 270.9375 321.75 " clip-rule="nonzero"/></clipPath><clipPath id="31e884915e"><path d="M 222.507812 376.96875 L 299.742188 376.96875 L 299.742188 420.328125 L 222.507812 420.328125 Z M 222.507812 376.96875 " clip-rule="nonzero"/></clipPath><clipPath id="5bfc71d943"><path d="M 244.1875 376.96875 L 278.058594 376.96875 C 283.808594 376.96875 289.324219 379.25 293.390625 383.316406 C 297.457031 387.382812 299.738281 392.898438 299.738281 398.648438 C 299.738281 404.398438 297.457031 409.910156 293.390625 413.976562 C 289.324219 418.042969 283.808594 420.328125 278.058594 420.328125 L 244.1875 420.328125 C 238.4375 420.328125 232.921875 418.042969 228.855469 413.976562 C 224.792969 409.910156 222.507812 404.398438 222.507812 398.648438 C 222.507812 392.898438 224.792969 387.382812 228.855469 383.316406 C 232.921875 379.25 238.4375 376.96875 244.1875 376.96875 Z M 244.1875 376.96875 " clip-rule="nonzero"/></clipPath><clipPath id="36c33e2232"><path d="M 270.9375 377.109375 L 321.46875 377.109375 L 321.46875 420.328125 L 270.9375 420.328125 Z M 270.9375 377.109375 " clip-rule="nonzero"/></clipPath><clipPath id="3429aaa0a0"><path d="M 420.273438 266.246094 L 518.304688 266.246094 L 518.304688 309.464844 L 420.273438 309.464844 Z M 420.273438 266.246094 " clip-rule="nonzero"/></clipPath><clipPath id="296352dbf8"><path d="M 517.183594 321.75 L 615.210938 321.75 L 615.210938 364.96875 L 517.183594 364.96875 Z M 517.183594 321.75 " clip-rule="nonzero"/></clipPath><clipPath id="151251526c"><path d="M 615.210938 376.96875 L 713.242188 376.96875 L 713.242188 420.183594 L 615.210938 420.183594 Z M 615.210938 376.96875 " clip-rule="nonzero"/></clipPath><clipPath id="389c670b11"><path d="M 322.246094 266.390625 L 420.273438 266.390625 L 420.273438 309.605469 L 322.246094 309.605469 Z M 322.246094 266.390625 " clip-rule="nonzero"/></clipPath><clipPath id="a9e4842865"><path d="M 322.246094 321.605469 L 518.304688 321.605469 L 518.304688 364.824219 L 322.246094 364.824219 Z M 322.246094 321.605469 " clip-rule="nonzero"/></clipPath><clipPath id="d779e81ba3"><path d="M 322.246094 376.824219 L 615.210938 376.824219 L 615.210938 420.039062 L 322.246094 420.039062 Z M 322.246094 376.824219 " clip-rule="nonzero"/></clipPath><clipPath id="744e3eea47"><path d="M 420.605469 211.03125 L 713.574219 211.03125 L 713.574219 254.246094 L 420.605469 254.246094 Z M 420.605469 211.03125 " clip-rule="nonzero"/></clipPath><clipPath id="93c759b464"><path d="M 518.777344 266.535156 L 713.574219 266.535156 L 713.574219 309.75 L 518.777344 309.75 Z M 518.777344 266.535156 " clip-rule="nonzero"/></clipPath><clipPath id="ddebc9bed1"><path d="M 616.175781 321.605469 L 713.242188 321.605469 L 713.242188 364.824219 L 616.175781 364.824219 Z M 616.175781 321.605469 " clip-rule="nonzero"/></clipPath><clipPath id="d43ea175d2"><path d="M 713.410156 202 L 717.160156 202 L 717.160156 419 L 713.410156 419 Z M 713.410156 202 " clip-rule="nonzero"/></clipPath><clipPath id="7e850c4ae2"><path d="M 321.46875 201 L 325.21875 201 L 325.21875 419 L 321.46875 419 Z M 321.46875 201 " clip-rule="nonzero"/></clipPath><clipPath id="63c448b770"><path d="M 416.757812 201 L 420.507812 201 L 420.507812 419 L 416.757812 419 Z M 416.757812 201 " clip-rule="nonzero"/></clipPath><clipPath id="de86c1f4f2"><path d="M 516.382812 201 L 520.132812 201 L 520.132812 419 L 516.382812 419 Z M 516.382812 201 " clip-rule="nonzero"/></clipPath><clipPath id="76aaa75df0"><path d="M 612.042969 201 L 615.792969 201 L 615.792969 419 L 612.042969 419 Z M 612.042969 201 " clip-rule="nonzero"/></clipPath></defs><g clip-path="url(#6437535aa2)"><path fill="#e2f4ff" d="M 200.546875 170.089844 L 759.777344 170.089844 L 759.777344 429.910156 L 200.546875 429.910156 Z M 200.546875 170.089844 " fill-opacity="1" fill-rule="nonzero"/></g><g clip-path="url(#6ef0d32774)"><g clip-path="url(#ca670ccb49)"><path fill="#1c71a5" d="M 222.507812 210.613281 L 386.96875 210.613281 L 386.96875 253.972656 L 222.507812 253.972656 Z M 222.507812 210.613281 " fill-opacity="1" fill-rule="nonzero"/></g></g><g clip-path="url(#7d0bd9b514)"><path fill="#1c71a5" d="M 365.644531 210.757812 L 420.339844 210.757812 L 420.339844 253.972656 L 365.644531 253.972656 Z M 365.644531 210.757812 " fill-opacity="1" fill-rule="nonzero"/></g><g clip-path="url(#3d8dc82704)"><g clip-path="url(#43ca23d8fb)"><path fill="#1976bb" d="M 222.507812 266.246094 L 299.742188 266.246094 L 299.742188 309.605469 L 222.507812 309.605469 Z M 222.507812 266.246094 " fill-opacity="1" fill-rule="nonzero"/></g></g><g clip-path="url(#5c0b15a3bf)"><path fill="#1976bb" d="M 270.9375 266.390625 L 321.410156 266.390625 L 321.410156 309.605469 L 270.9375 309.605469 Z M 270.9375 266.390625 " fill-opacity="1" fill-rule="nonzero"/></g><g clip-path="url(#b81cfda591)"><g clip-path="url(#f2eb523b79)"><path fill="#2381bf" d="M 222.507812 321.605469 L 299.742188 321.605469 L 299.742188 364.96875 L 222.507812 364.96875 Z M 222.507812 321.605469 " fill-opacity="1" fill-rule="nonzero"/></g></g><g clip-path="url(#336420dd55)"><path fill="#2381bf" d="M 270.9375 321.75 L 321.410156 321.75 L 321.410156 364.96875 L 270.9375 364.96875 Z M 270.9375 321.75 " fill-opacity="1" fill-rule="nonzero"/></g><g clip-path="url(#31e884915e)"><g clip-path="url(#5bfc71d943)"><path fill="#088cd1" d="M 222.507812 376.96875 L 299.742188 376.96875 L 299.742188 420.328125 L 222.507812 420.328125 Z M 222.507812 376.96875 " fill-opacity="1" fill-rule="nonzero"/></g></g><g clip-path="url(#36c33e2232)"><path fill="#088cd1" d="M 270.9375 377.109375 L 321.410156 377.109375 L 321.410156 420.328125 L 270.9375 420.328125 Z M 270.9375 377.109375 " fill-opacity="1" fill-rule="nonzero"/></g><g clip-path="url(#3429aaa0a0)"><path fill="#1976bb" d="M 420.273438 266.246094 L 518.355469 266.246094 L 518.355469 309.464844 L 420.273438 309.464844 Z M 420.273438 266.246094 " fill-opacity="1" fill-rule="nonzero"/></g><g clip-path="url(#296352dbf8)"><path fill="#2381bf" d="M 517.183594 321.75 L 615.261719 321.75 L 615.261719 364.96875 L 517.183594 364.96875 Z M 517.183594 321.75 " fill-opacity="1" fill-rule="nonzero"/></g><g clip-path="url(#151251526c)"><path fill="#088cd1" d="M 615.210938 376.96875 L 713.292969 376.96875 L 713.292969 420.183594 L 615.210938 420.183594 Z M 615.210938 376.96875 " fill-opacity="1" fill-rule="nonzero"/></g><g clip-path="url(#389c670b11)"><path fill="#c2ddef" d="M 322.246094 266.390625 L 420.324219 266.390625 L 420.324219 309.605469 L 322.246094 309.605469 Z M 322.246094 266.390625 " fill-opacity="1" fill-rule="nonzero"/></g><g clip-path="url(#a9e4842865)"><path fill="#c2ddef" d="M 322.246094 321.605469 L 518.238281 321.605469 L 518.238281 364.824219 L 322.246094 364.824219 Z M 322.246094 321.605469 " fill-opacity="1" fill-rule="nonzero"/></g><g clip-path="url(#d779e81ba3)"><path fill="#c2ddef" d="M 322.246094 376.824219 L 615.136719 376.824219 L 615.136719 420.039062 L 322.246094 420.039062 Z M 322.246094 376.824219 " fill-opacity="1" fill-rule="nonzero"/></g><g clip-path="url(#744e3eea47)"><path fill="#c2ddef" d="M 420.605469 211.03125 L 713.496094 211.03125 L 713.496094 254.246094 L 420.605469 254.246094 Z M 420.605469 211.03125 " fill-opacity="1" fill-rule="nonzero"/></g><g clip-path="url(#93c759b464)"><path fill="#c2ddef" d="M 518.777344 266.535156 L 713.585938 266.535156 L 713.585938 309.75 L 518.777344 309.75 Z M 518.777344 266.535156 " fill-opacity="1" fill-rule="nonzero"/></g><g clip-path="url(#ddebc9bed1)"><path fill="#c2ddef" d="M 616.175781 321.605469 L 713.242188 321.605469 L 713.242188 364.824219 L 616.175781 364.824219 Z M 616.175781 321.605469 " fill-opacity="1" fill-rule="nonzero"/></g><g clip-path="url(#d43ea175d2)"><path fill="#ccebff" d="M 715.324219 418.515625 C 714.269531 418.515625 713.410156 417.65625 713.410156 416.597656 L 713.410156 203.984375 C 713.410156 202.925781 714.269531 202.066406 715.324219 202.066406 C 716.382812 202.066406 717.242188 202.925781 717.242188 203.984375 L 717.242188 416.597656 C 717.242188 417.65625 716.382812 418.515625 715.324219 418.515625 Z M 715.324219 418.515625 " fill-opacity="1" fill-rule="nonzero"/></g><g clip-path="url(#7e850c4ae2)"><path fill="#ccebff" d="M 323.390625 418.984375 C 322.332031 418.984375 321.46875 418.125 321.46875 417.0625 L 321.46875 203.796875 C 321.46875 202.738281 322.332031 201.875 323.390625 201.875 C 324.453125 201.875 325.3125 202.738281 325.3125 203.796875 L 325.3125 417.0625 C 325.3125 418.125 324.453125 418.984375 323.390625 418.984375 Z M 323.390625 418.984375 " fill-opacity="1" fill-rule="nonzero"/></g><g clip-path="url(#63c448b770)"><path fill="#ccebff" d="M 418.679688 418.984375 C 417.617188 418.984375 416.757812 418.125 416.757812 417.0625 L 416.757812 203.796875 C 416.757812 202.738281 417.617188 201.875 418.679688 201.875 C 419.742188 201.875 420.601562 202.738281 420.601562 203.796875 L 420.601562 417.0625 C 420.601562 418.125 419.742188 418.984375 418.679688 418.984375 Z M 418.679688 418.984375 " fill-opacity="1" fill-rule="nonzero"/></g><g clip-path="url(#de86c1f4f2)"><path fill="#ccebff" d="M 518.304688 418.984375 C 517.242188 418.984375 516.382812 418.125 516.382812 417.0625 L 516.382812 203.796875 C 516.382812 202.738281 517.242188 201.875 518.304688 201.875 C 519.367188 201.875 520.226562 202.738281 520.226562 203.796875 L 520.226562 417.0625 C 520.226562 418.125 519.367188 418.984375 518.304688 418.984375 Z M 518.304688 418.984375 " fill-opacity="1" fill-rule="nonzero"/></g><g clip-path="url(#76aaa75df0)"><path fill="#ccebff" d="M 613.964844 418.984375 C 612.902344 418.984375 612.042969 418.125 612.042969 417.0625 L 612.042969 203.796875 C 612.042969 202.738281 612.902344 201.875 613.964844 201.875 C 615.027344 201.875 615.886719 202.738281 615.886719 203.796875 L 615.886719 417.0625 C 615.886719 418.125 615.027344 418.984375 613.964844 418.984375 Z M 613.964844 418.984375 " fill-opacity="1" fill-rule="nonzero"/></g><g fill="#1976bb" fill-opacity="1"><g transform="translate(317.857252, 191.196487)"><g><path d="M 8.234375 -5.484375 C 8.234375 -3.566406 7.914062 -2.144531 7.28125 -1.21875 C 6.65625 -0.300781 5.691406 0.15625 4.390625 0.15625 C 3.117188 0.15625 2.160156 -0.316406 1.515625 -1.265625 C 0.878906 -2.222656 0.5625 -3.628906 0.5625 -5.484375 C 0.5625 -7.421875 0.875 -8.847656 1.5 -9.765625 C 2.125 -10.679688 3.085938 -11.140625 4.390625 -11.140625 C 5.648438 -11.140625 6.601562 -10.660156 7.25 -9.703125 C 7.90625 -8.742188 8.234375 -7.335938 8.234375 -5.484375 Z M 2.859375 -5.484375 C 2.859375 -4.140625 2.972656 -3.175781 3.203125 -2.59375 C 3.441406 -2.007812 3.835938 -1.71875 4.390625 -1.71875 C 4.921875 -1.71875 5.304688 -2.007812 5.546875 -2.59375 C 5.796875 -3.1875 5.921875 -4.148438 5.921875 -5.484375 C 5.921875 -6.828125 5.796875 -7.789062 5.546875 -8.375 C 5.304688 -8.96875 4.921875 -9.265625 4.390625 -9.265625 C 3.835938 -9.265625 3.441406 -8.96875 3.203125 -8.375 C 2.972656 -7.789062 2.859375 -6.828125 2.859375 -5.484375 Z M 2.859375 -5.484375 "/></g></g></g><g fill="#1976bb" fill-opacity="1"><g transform="translate(212.304761, 195.013255)"><g><path d="M 5.828125 0.21875 C 4.796875 0.21875 3.796875 0.0820312 2.828125 -0.1875 C 1.867188 -0.46875 1.097656 -0.832031 0.515625 -1.28125 L 1.546875 -3.5625 C 2.109375 -3.144531 2.769531 -2.8125 3.53125 -2.5625 C 4.300781 -2.320312 5.070312 -2.203125 5.84375 -2.203125 C 6.707031 -2.203125 7.34375 -2.328125 7.75 -2.578125 C 8.15625 -2.835938 8.359375 -3.175781 8.359375 -3.59375 C 8.359375 -3.90625 8.238281 -4.160156 8 -4.359375 C 7.757812 -4.566406 7.445312 -4.734375 7.0625 -4.859375 C 6.6875 -4.984375 6.175781 -5.117188 5.53125 -5.265625 C 4.539062 -5.503906 3.726562 -5.738281 3.09375 -5.96875 C 2.457031 -6.207031 1.910156 -6.585938 1.453125 -7.109375 C 1.003906 -7.628906 0.78125 -8.328125 0.78125 -9.203125 C 0.78125 -9.960938 0.984375 -10.648438 1.390625 -11.265625 C 1.804688 -11.878906 2.425781 -12.363281 3.25 -12.71875 C 4.070312 -13.082031 5.082031 -13.265625 6.28125 -13.265625 C 7.113281 -13.265625 7.925781 -13.164062 8.71875 -12.96875 C 9.507812 -12.769531 10.203125 -12.484375 10.796875 -12.109375 L 9.875 -9.8125 C 8.664062 -10.5 7.460938 -10.84375 6.265625 -10.84375 C 5.410156 -10.84375 4.78125 -10.703125 4.375 -10.421875 C 3.976562 -10.148438 3.78125 -9.789062 3.78125 -9.34375 C 3.78125 -8.894531 4.007812 -8.5625 4.46875 -8.34375 C 4.9375 -8.132812 5.648438 -7.921875 6.609375 -7.703125 C 7.609375 -7.472656 8.421875 -7.238281 9.046875 -7 C 9.679688 -6.769531 10.222656 -6.398438 10.671875 -5.890625 C 11.128906 -5.378906 11.359375 -4.6875 11.359375 -3.8125 C 11.359375 -3.070312 11.148438 -2.394531 10.734375 -1.78125 C 10.316406 -1.164062 9.691406 -0.675781 8.859375 -0.3125 C 8.035156 0.0390625 7.023438 0.21875 5.828125 0.21875 Z M 5.828125 0.21875 "/></g></g></g><g fill="#1976bb" fill-opacity="1"><g transform="translate(224.185056, 195.013255)"><g><path d="M 11.640625 -2.421875 L 11.640625 0 L 1.546875 0 L 1.546875 -13.03125 L 11.40625 -13.03125 L 11.40625 -10.609375 L 4.546875 -10.609375 L 4.546875 -7.78125 L 10.59375 -7.78125 L 10.59375 -5.4375 L 4.546875 -5.4375 L 4.546875 -2.421875 Z M 11.640625 -2.421875 "/></g></g></g><g fill="#1976bb" fill-opacity="1"><g transform="translate(236.67984, 195.013255)"><g><path d="M 13.40625 0 L 13.390625 -7.828125 L 9.546875 -1.375 L 8.1875 -1.375 L 4.375 -7.65625 L 4.375 0 L 1.546875 0 L 1.546875 -13.03125 L 4.046875 -13.03125 L 8.921875 -4.9375 L 13.734375 -13.03125 L 16.203125 -13.03125 L 16.234375 0 Z M 13.40625 0 "/></g></g></g><g fill="#1976bb" fill-opacity="1"><g transform="translate(254.463031, 195.013255)"><g><path d="M 10.125 -2.796875 L 4.078125 -2.796875 L 2.921875 0 L -0.171875 0 L 5.640625 -13.03125 L 8.625 -13.03125 L 14.453125 0 L 11.28125 0 Z M 9.1875 -5.078125 L 7.109375 -10.078125 L 5.046875 -5.078125 Z M 9.1875 -5.078125 "/></g></g></g><g fill="#1976bb" fill-opacity="1"><g transform="translate(268.726832, 195.013255)"><g><path d="M 13.5 -13.03125 L 13.5 0 L 11.03125 0 L 4.53125 -7.921875 L 4.53125 0 L 1.546875 0 L 1.546875 -13.03125 L 4.046875 -13.03125 L 10.515625 -5.125 L 10.515625 -13.03125 Z M 13.5 -13.03125 "/></g></g></g><g fill="#1976bb" fill-opacity="1"><g transform="translate(283.772722, 195.013255)"><g><path d="M 10.125 -2.796875 L 4.078125 -2.796875 L 2.921875 0 L -0.171875 0 L 5.640625 -13.03125 L 8.625 -13.03125 L 14.453125 0 L 11.28125 0 Z M 9.1875 -5.078125 L 7.109375 -10.078125 L 5.046875 -5.078125 Z M 9.1875 -5.078125 "/></g></g></g><g fill="#1976bb" fill-opacity="1"><g transform="translate(298.036523, 195.013255)"><g><path d="M 5.828125 0.21875 C 4.796875 0.21875 3.796875 0.0820312 2.828125 -0.1875 C 1.867188 -0.46875 1.097656 -0.832031 0.515625 -1.28125 L 1.546875 -3.5625 C 2.109375 -3.144531 2.769531 -2.8125 3.53125 -2.5625 C 4.300781 -2.320312 5.070312 -2.203125 5.84375 -2.203125 C 6.707031 -2.203125 7.34375 -2.328125 7.75 -2.578125 C 8.15625 -2.835938 8.359375 -3.175781 8.359375 -3.59375 C 8.359375 -3.90625 8.238281 -4.160156 8 -4.359375 C 7.757812 -4.566406 7.445312 -4.734375 7.0625 -4.859375 C 6.6875 -4.984375 6.175781 -5.117188 5.53125 -5.265625 C 4.539062 -5.503906 3.726562 -5.738281 3.09375 -5.96875 C 2.457031 -6.207031 1.910156 -6.585938 1.453125 -7.109375 C 1.003906 -7.628906 0.78125 -8.328125 0.78125 -9.203125 C 0.78125 -9.960938 0.984375 -10.648438 1.390625 -11.265625 C 1.804688 -11.878906 2.425781 -12.363281 3.25 -12.71875 C 4.070312 -13.082031 5.082031 -13.265625 6.28125 -13.265625 C 7.113281 -13.265625 7.925781 -13.164062 8.71875 -12.96875 C 9.507812 -12.769531 10.203125 -12.484375 10.796875 -12.109375 L 9.875 -9.8125 C 8.664062 -10.5 7.460938 -10.84375 6.265625 -10.84375 C 5.410156 -10.84375 4.78125 -10.703125 4.375 -10.421875 C 3.976562 -10.148438 3.78125 -9.789062 3.78125 -9.34375 C 3.78125 -8.894531 4.007812 -8.5625 4.46875 -8.34375 C 4.9375 -8.132812 5.648438 -7.921875 6.609375 -7.703125 C 7.609375 -7.472656 8.421875 -7.238281 9.046875 -7 C 9.679688 -6.769531 10.222656 -6.398438 10.671875 -5.890625 C 11.128906 -5.378906 11.359375 -4.6875 11.359375 -3.8125 C 11.359375 -3.070312 11.148438 -2.394531 10.734375 -1.78125 C 10.316406 -1.164062 9.691406 -0.675781 8.859375 -0.3125 C 8.035156 0.0390625 7.023438 0.21875 5.828125 0.21875 Z M 5.828125 0.21875 "/></g></g></g><g fill="#1976bb" fill-opacity="1"><g transform="translate(409.907479, 191.196487)"><g><path d="M 6.34375 0 L 4.03125 0 L 4.03125 -6.34375 L 4.046875 -7.390625 L 4.09375 -8.53125 C 3.707031 -8.144531 3.4375 -7.894531 3.28125 -7.78125 L 2.03125 -6.765625 L 0.90625 -8.15625 L 4.4375 -10.96875 L 6.34375 -10.96875 Z M 6.34375 0 "/></g></g></g><g fill="#1976bb" fill-opacity="1"><g transform="translate(418.676857, 191.196487)"><g><path d="M 8.234375 -5.484375 C 8.234375 -3.566406 7.914062 -2.144531 7.28125 -1.21875 C 6.65625 -0.300781 5.691406 0.15625 4.390625 0.15625 C 3.117188 0.15625 2.160156 -0.316406 1.515625 -1.265625 C 0.878906 -2.222656 0.5625 -3.628906 0.5625 -5.484375 C 0.5625 -7.421875 0.875 -8.847656 1.5 -9.765625 C 2.125 -10.679688 3.085938 -11.140625 4.390625 -11.140625 C 5.648438 -11.140625 6.601562 -10.660156 7.25 -9.703125 C 7.90625 -8.742188 8.234375 -7.335938 8.234375 -5.484375 Z M 2.859375 -5.484375 C 2.859375 -4.140625 2.972656 -3.175781 3.203125 -2.59375 C 3.441406 -2.007812 3.835938 -1.71875 4.390625 -1.71875 C 4.921875 -1.71875 5.304688 -2.007812 5.546875 -2.59375 C 5.796875 -3.1875 5.921875 -4.148438 5.921875 -5.484375 C 5.921875 -6.828125 5.796875 -7.789062 5.546875 -8.375 C 5.304688 -8.96875 4.921875 -9.265625 4.390625 -9.265625 C 3.835938 -9.265625 3.441406 -8.96875 3.203125 -8.375 C 2.972656 -7.789062 2.859375 -6.828125 2.859375 -5.484375 Z M 2.859375 -5.484375 "/></g></g></g><g fill="#1976bb" fill-opacity="1"><g transform="translate(509.530587, 192.339725)"><g><path d="M 8.28125 0 L 0.609375 0 L 0.609375 -1.609375 L 3.375 -4.40625 C 4.1875 -5.238281 4.71875 -5.816406 4.96875 -6.140625 C 5.21875 -6.460938 5.394531 -6.757812 5.5 -7.03125 C 5.613281 -7.3125 5.671875 -7.597656 5.671875 -7.890625 C 5.671875 -8.328125 5.550781 -8.65625 5.3125 -8.875 C 5.070312 -9.09375 4.75 -9.203125 4.34375 -9.203125 C 3.914062 -9.203125 3.5 -9.101562 3.09375 -8.90625 C 2.695312 -8.707031 2.28125 -8.429688 1.84375 -8.078125 L 0.578125 -9.5625 C 1.117188 -10.019531 1.566406 -10.34375 1.921875 -10.53125 C 2.285156 -10.726562 2.675781 -10.878906 3.09375 -10.984375 C 3.507812 -11.085938 3.976562 -11.140625 4.5 -11.140625 C 5.1875 -11.140625 5.789062 -11.007812 6.3125 -10.75 C 6.84375 -10.5 7.253906 -10.148438 7.546875 -9.703125 C 7.835938 -9.253906 7.984375 -8.738281 7.984375 -8.15625 C 7.984375 -7.65625 7.894531 -7.179688 7.71875 -6.734375 C 7.539062 -6.296875 7.265625 -5.84375 6.890625 -5.375 C 6.515625 -4.90625 5.859375 -4.242188 4.921875 -3.390625 L 3.5 -2.0625 L 3.5 -1.953125 L 8.28125 -1.953125 Z M 8.28125 0 "/></g></g></g><g fill="#1976bb" fill-opacity="1"><g transform="translate(518.299965, 192.339725)"><g><path d="M 8.234375 -5.484375 C 8.234375 -3.566406 7.914062 -2.144531 7.28125 -1.21875 C 6.65625 -0.300781 5.691406 0.15625 4.390625 0.15625 C 3.117188 0.15625 2.160156 -0.316406 1.515625 -1.265625 C 0.878906 -2.222656 0.5625 -3.628906 0.5625 -5.484375 C 0.5625 -7.421875 0.875 -8.847656 1.5 -9.765625 C 2.125 -10.679688 3.085938 -11.140625 4.390625 -11.140625 C 5.648438 -11.140625 6.601562 -10.660156 7.25 -9.703125 C 7.90625 -8.742188 8.234375 -7.335938 8.234375 -5.484375 Z M 2.859375 -5.484375 C 2.859375 -4.140625 2.972656 -3.175781 3.203125 -2.59375 C 3.441406 -2.007812 3.835938 -1.71875 4.390625 -1.71875 C 4.921875 -1.71875 5.304688 -2.007812 5.546875 -2.59375 C 5.796875 -3.1875 5.921875 -4.148438 5.921875 -5.484375 C 5.921875 -6.828125 5.796875 -7.789062 5.546875 -8.375 C 5.304688 -8.96875 4.921875 -9.265625 4.390625 -9.265625 C 3.835938 -9.265625 3.441406 -8.96875 3.203125 -8.375 C 2.972656 -7.789062 2.859375 -6.828125 2.859375 -5.484375 Z M 2.859375 -5.484375 "/></g></g></g><g fill="#1976bb" fill-opacity="1"><g transform="translate(605.194439, 193.118565)"><g><path d="M 7.859375 -8.515625 C 7.859375 -7.835938 7.648438 -7.253906 7.234375 -6.765625 C 6.816406 -6.285156 6.234375 -5.957031 5.484375 -5.78125 L 5.484375 -5.734375 C 6.367188 -5.628906 7.039062 -5.359375 7.5 -4.921875 C 7.957031 -4.492188 8.1875 -3.921875 8.1875 -3.203125 C 8.1875 -2.140625 7.800781 -1.3125 7.03125 -0.71875 C 6.269531 -0.132812 5.175781 0.15625 3.75 0.15625 C 2.5625 0.15625 1.503906 -0.0390625 0.578125 -0.4375 L 0.578125 -2.421875 C 1.003906 -2.203125 1.472656 -2.023438 1.984375 -1.890625 C 2.492188 -1.753906 3 -1.6875 3.5 -1.6875 C 4.269531 -1.6875 4.835938 -1.816406 5.203125 -2.078125 C 5.566406 -2.335938 5.75 -2.753906 5.75 -3.328125 C 5.75 -3.847656 5.535156 -4.210938 5.109375 -4.421875 C 4.691406 -4.640625 4.023438 -4.75 3.109375 -4.75 L 2.28125 -4.75 L 2.28125 -6.53125 L 3.125 -6.53125 C 3.976562 -6.53125 4.597656 -6.640625 4.984375 -6.859375 C 5.378906 -7.085938 5.578125 -7.472656 5.578125 -8.015625 C 5.578125 -8.835938 5.054688 -9.25 4.015625 -9.25 C 3.648438 -9.25 3.28125 -9.1875 2.90625 -9.0625 C 2.539062 -8.945312 2.128906 -8.742188 1.671875 -8.453125 L 0.59375 -10.046875 C 1.601562 -10.773438 2.800781 -11.140625 4.1875 -11.140625 C 5.320312 -11.140625 6.21875 -10.90625 6.875 -10.4375 C 7.53125 -9.976562 7.859375 -9.335938 7.859375 -8.515625 Z M 7.859375 -8.515625 "/></g></g></g><g fill="#1976bb" fill-opacity="1"><g transform="translate(613.963817, 193.118565)"><g><path d="M 8.234375 -5.484375 C 8.234375 -3.566406 7.914062 -2.144531 7.28125 -1.21875 C 6.65625 -0.300781 5.691406 0.15625 4.390625 0.15625 C 3.117188 0.15625 2.160156 -0.316406 1.515625 -1.265625 C 0.878906 -2.222656 0.5625 -3.628906 0.5625 -5.484375 C 0.5625 -7.421875 0.875 -8.847656 1.5 -9.765625 C 2.125 -10.679688 3.085938 -11.140625 4.390625 -11.140625 C 5.648438 -11.140625 6.601562 -10.660156 7.25 -9.703125 C 7.90625 -8.742188 8.234375 -7.335938 8.234375 -5.484375 Z M 2.859375 -5.484375 C 2.859375 -4.140625 2.972656 -3.175781 3.203125 -2.59375 C 3.441406 -2.007812 3.835938 -1.71875 4.390625 -1.71875 C 4.921875 -1.71875 5.304688 -2.007812 5.546875 -2.59375 C 5.796875 -3.1875 5.921875 -4.148438 5.921875 -5.484375 C 5.921875 -6.828125 5.796875 -7.789062 5.546875 -8.375 C 5.304688 -8.96875 4.921875 -9.265625 4.390625 -9.265625 C 3.835938 -9.265625 3.441406 -8.96875 3.203125 -8.375 C 2.972656 -7.789062 2.859375 -6.828125 2.859375 -5.484375 Z M 2.859375 -5.484375 "/></g></g></g><g fill="#1976bb" fill-opacity="1"><g transform="translate(706.556274, 191.589725)"><g><path d="M 8.53125 -2.28125 L 7.21875 -2.28125 L 7.21875 0 L 4.953125 0 L 4.953125 -2.28125 L 0.265625 -2.28125 L 0.265625 -3.890625 L 5.078125 -10.96875 L 7.21875 -10.96875 L 7.21875 -4.078125 L 8.53125 -4.078125 Z M 4.953125 -4.078125 L 4.953125 -5.9375 C 4.953125 -6.25 4.960938 -6.695312 4.984375 -7.28125 C 5.003906 -7.875 5.023438 -8.21875 5.046875 -8.3125 L 4.984375 -8.3125 C 4.796875 -7.90625 4.570312 -7.503906 4.3125 -7.109375 L 2.3125 -4.078125 Z M 4.953125 -4.078125 "/></g></g></g><g fill="#1976bb" fill-opacity="1"><g transform="translate(715.325653, 191.589725)"><g><path d="M 8.234375 -5.484375 C 8.234375 -3.566406 7.914062 -2.144531 7.28125 -1.21875 C 6.65625 -0.300781 5.691406 0.15625 4.390625 0.15625 C 3.117188 0.15625 2.160156 -0.316406 1.515625 -1.265625 C 0.878906 -2.222656 0.5625 -3.628906 0.5625 -5.484375 C 0.5625 -7.421875 0.875 -8.847656 1.5 -9.765625 C 2.125 -10.679688 3.085938 -11.140625 4.390625 -11.140625 C 5.648438 -11.140625 6.601562 -10.660156 7.25 -9.703125 C 7.90625 -8.742188 8.234375 -7.335938 8.234375 -5.484375 Z M 2.859375 -5.484375 C 2.859375 -4.140625 2.972656 -3.175781 3.203125 -2.59375 C 3.441406 -2.007812 3.835938 -1.71875 4.390625 -1.71875 C 4.921875 -1.71875 5.304688 -2.007812 5.546875 -2.59375 C 5.796875 -3.1875 5.921875 -4.148438 5.921875 -5.484375 C 5.921875 -6.828125 5.796875 -7.789062 5.546875 -8.375 C 5.304688 -8.96875 4.921875 -9.265625 4.390625 -9.265625 C 3.835938 -9.265625 3.441406 -8.96875 3.203125 -8.375 C 2.972656 -7.789062 2.859375 -6.828125 2.859375 -5.484375 Z M 2.859375 -5.484375 "/></g></g></g><g fill="#ccebff" fill-opacity="1"><g transform="translate(236.493576, 236.684158)"><g><path d="M 9.796875 0 L 9.78125 -5.71875 L 6.984375 -1 L 5.984375 -1 L 3.203125 -5.59375 L 3.203125 0 L 1.125 0 L 1.125 -9.53125 L 2.953125 -9.53125 L 6.515625 -3.609375 L 10.03125 -9.53125 L 11.84375 -9.53125 L 11.875 0 Z M 9.796875 0 "/></g></g></g><g fill="#ccebff" fill-opacity="1"><g transform="translate(249.491544, 236.684158)"><g><path d="M 4.46875 0.109375 C 3.695312 0.109375 3.003906 -0.0507812 2.390625 -0.375 C 1.773438 -0.695312 1.296875 -1.144531 0.953125 -1.71875 C 0.609375 -2.289062 0.4375 -2.9375 0.4375 -3.65625 C 0.4375 -4.382812 0.609375 -5.035156 0.953125 -5.609375 C 1.296875 -6.179688 1.773438 -6.628906 2.390625 -6.953125 C 3.003906 -7.273438 3.695312 -7.4375 4.46875 -7.4375 C 5.238281 -7.4375 5.925781 -7.273438 6.53125 -6.953125 C 7.132812 -6.628906 7.609375 -6.179688 7.953125 -5.609375 C 8.304688 -5.035156 8.484375 -4.382812 8.484375 -3.65625 C 8.484375 -2.9375 8.304688 -2.289062 7.953125 -1.71875 C 7.609375 -1.144531 7.132812 -0.695312 6.53125 -0.375 C 5.925781 -0.0507812 5.238281 0.109375 4.46875 0.109375 Z M 4.46875 -1.640625 C 5.007812 -1.640625 5.453125 -1.820312 5.796875 -2.1875 C 6.148438 -2.550781 6.328125 -3.039062 6.328125 -3.65625 C 6.328125 -4.28125 6.148438 -4.773438 5.796875 -5.140625 C 5.453125 -5.503906 5.007812 -5.6875 4.46875 -5.6875 C 3.914062 -5.6875 3.460938 -5.503906 3.109375 -5.140625 C 2.753906 -4.773438 2.578125 -4.28125 2.578125 -3.65625 C 2.578125 -3.039062 2.753906 -2.550781 3.109375 -2.1875 C 3.460938 -1.820312 3.914062 -1.640625 4.46875 -1.640625 Z M 5.03125 -10.21875 L 7.3125 -10.21875 L 4.859375 -8.265625 L 3.1875 -8.265625 Z M 5.03125 -10.21875 "/></g></g></g><g fill="#ccebff" fill-opacity="1"><g transform="translate(258.406381, 236.684158)"><g><path d="M 8.4375 -10.09375 L 8.4375 0 L 6.40625 0 L 6.40625 -0.84375 C 5.882812 -0.207031 5.125 0.109375 4.125 0.109375 C 3.4375 0.109375 2.8125 -0.0390625 2.25 -0.34375 C 1.695312 -0.65625 1.257812 -1.097656 0.9375 -1.671875 C 0.625 -2.242188 0.46875 -2.90625 0.46875 -3.65625 C 0.46875 -4.414062 0.625 -5.078125 0.9375 -5.640625 C 1.257812 -6.210938 1.695312 -6.65625 2.25 -6.96875 C 2.8125 -7.28125 3.4375 -7.4375 4.125 -7.4375 C 5.0625 -7.4375 5.789062 -7.140625 6.3125 -6.546875 L 6.3125 -10.09375 Z M 4.484375 -1.640625 C 5.023438 -1.640625 5.472656 -1.820312 5.828125 -2.1875 C 6.179688 -2.550781 6.359375 -3.039062 6.359375 -3.65625 C 6.359375 -4.28125 6.179688 -4.773438 5.828125 -5.140625 C 5.472656 -5.503906 5.023438 -5.6875 4.484375 -5.6875 C 3.941406 -5.6875 3.492188 -5.503906 3.140625 -5.140625 C 2.785156 -4.773438 2.609375 -4.28125 2.609375 -3.65625 C 2.609375 -3.039062 2.785156 -2.550781 3.140625 -2.1875 C 3.492188 -1.820312 3.941406 -1.640625 4.484375 -1.640625 Z M 4.484375 -1.640625 "/></g></g></g><g fill="#ccebff" fill-opacity="1"><g transform="translate(267.824804, 236.684158)"><g><path d="M 8.359375 -7.328125 L 8.359375 0 L 6.34375 0 L 6.34375 -0.875 C 6.0625 -0.550781 5.722656 -0.304688 5.328125 -0.140625 C 4.941406 0.0234375 4.519531 0.109375 4.0625 0.109375 C 3.101562 0.109375 2.34375 -0.164062 1.78125 -0.71875 C 1.21875 -1.269531 0.9375 -2.09375 0.9375 -3.1875 L 0.9375 -7.328125 L 3.0625 -7.328125 L 3.0625 -3.5 C 3.0625 -2.320312 3.554688 -1.734375 4.546875 -1.734375 C 5.054688 -1.734375 5.460938 -1.894531 5.765625 -2.21875 C 6.078125 -2.550781 6.234375 -3.046875 6.234375 -3.703125 L 6.234375 -7.328125 Z M 8.359375 -7.328125 "/></g></g></g><g fill="#ccebff" fill-opacity="1"><g transform="translate(277.175179, 236.684158)"><g><path d="M 0.984375 -10.09375 L 3.109375 -10.09375 L 3.109375 0 L 0.984375 0 Z M 0.984375 -10.09375 "/></g></g></g><g fill="#ccebff" fill-opacity="1"><g transform="translate(281.271919, 236.684158)"><g><path d="M 4.46875 0.109375 C 3.695312 0.109375 3.003906 -0.0507812 2.390625 -0.375 C 1.773438 -0.695312 1.296875 -1.144531 0.953125 -1.71875 C 0.609375 -2.289062 0.4375 -2.9375 0.4375 -3.65625 C 0.4375 -4.382812 0.609375 -5.035156 0.953125 -5.609375 C 1.296875 -6.179688 1.773438 -6.628906 2.390625 -6.953125 C 3.003906 -7.273438 3.695312 -7.4375 4.46875 -7.4375 C 5.238281 -7.4375 5.925781 -7.273438 6.53125 -6.953125 C 7.132812 -6.628906 7.609375 -6.179688 7.953125 -5.609375 C 8.304688 -5.035156 8.484375 -4.382812 8.484375 -3.65625 C 8.484375 -2.9375 8.304688 -2.289062 7.953125 -1.71875 C 7.609375 -1.144531 7.132812 -0.695312 6.53125 -0.375 C 5.925781 -0.0507812 5.238281 0.109375 4.46875 0.109375 Z M 4.46875 -1.640625 C 5.007812 -1.640625 5.453125 -1.820312 5.796875 -2.1875 C 6.148438 -2.550781 6.328125 -3.039062 6.328125 -3.65625 C 6.328125 -4.28125 6.148438 -4.773438 5.796875 -5.140625 C 5.453125 -5.503906 5.007812 -5.6875 4.46875 -5.6875 C 3.914062 -5.6875 3.460938 -5.503906 3.109375 -5.140625 C 2.753906 -4.773438 2.578125 -4.28125 2.578125 -3.65625 C 2.578125 -3.039062 2.753906 -2.550781 3.109375 -2.1875 C 3.460938 -1.820312 3.914062 -1.640625 4.46875 -1.640625 Z M 4.46875 -1.640625 "/></g></g></g><g fill="#ccebff" fill-opacity="1"><g transform="translate(290.186757, 236.684158)"><g/></g></g><g fill="#ccebff" fill-opacity="1"><g transform="translate(294.038513, 236.684158)"><g><path d="M 3.796875 -5.953125 C 5.140625 -5.953125 6.128906 -5.679688 6.765625 -5.140625 C 7.410156 -4.609375 7.734375 -3.894531 7.734375 -3 C 7.734375 -2.414062 7.585938 -1.882812 7.296875 -1.40625 C 7.003906 -0.925781 6.5625 -0.546875 5.96875 -0.265625 C 5.375 0.015625 4.640625 0.15625 3.765625 0.15625 C 3.097656 0.15625 2.4375 0.0664062 1.78125 -0.109375 C 1.132812 -0.285156 0.585938 -0.535156 0.140625 -0.859375 L 1 -2.546875 C 1.363281 -2.273438 1.78125 -2.0625 2.25 -1.90625 C 2.726562 -1.757812 3.21875 -1.6875 3.71875 -1.6875 C 4.269531 -1.6875 4.703125 -1.796875 5.015625 -2.015625 C 5.335938 -2.234375 5.5 -2.535156 5.5 -2.921875 C 5.5 -3.328125 5.332031 -3.632812 5 -3.84375 C 4.664062 -4.0625 4.09375 -4.171875 3.28125 -4.171875 L 0.84375 -4.171875 L 1.328125 -9.53125 L 7.140625 -9.53125 L 7.140625 -7.75 L 3.171875 -7.75 L 3.015625 -5.953125 Z M 3.796875 -5.953125 "/></g></g></g><g fill="#ccebff" fill-opacity="1"><g transform="translate(302.136728, 236.684158)"><g><path d="M 4.203125 -9.53125 L 4.203125 0 L 2 0 L 2 -7.75 L 0.09375 -7.75 L 0.09375 -9.53125 Z M 4.203125 -9.53125 "/></g></g></g><g fill="#ccebff" fill-opacity="1"><g transform="translate(235.144512, 291.066876)"><g><path d="M 9.796875 0 L 9.78125 -5.71875 L 6.984375 -1 L 5.984375 -1 L 3.203125 -5.59375 L 3.203125 0 L 1.125 0 L 1.125 -9.53125 L 2.953125 -9.53125 L 6.515625 -3.609375 L 10.03125 -9.53125 L 11.84375 -9.53125 L 11.875 0 Z M 9.796875 0 "/></g></g></g><g fill="#ccebff" fill-opacity="1"><g transform="translate(248.14248, 291.066876)"><g><path d="M 4.46875 0.109375 C 3.695312 0.109375 3.003906 -0.0507812 2.390625 -0.375 C 1.773438 -0.695312 1.296875 -1.144531 0.953125 -1.71875 C 0.609375 -2.289062 0.4375 -2.9375 0.4375 -3.65625 C 0.4375 -4.382812 0.609375 -5.035156 0.953125 -5.609375 C 1.296875 -6.179688 1.773438 -6.628906 2.390625 -6.953125 C 3.003906 -7.273438 3.695312 -7.4375 4.46875 -7.4375 C 5.238281 -7.4375 5.925781 -7.273438 6.53125 -6.953125 C 7.132812 -6.628906 7.609375 -6.179688 7.953125 -5.609375 C 8.304688 -5.035156 8.484375 -4.382812 8.484375 -3.65625 C 8.484375 -2.9375 8.304688 -2.289062 7.953125 -1.71875 C 7.609375 -1.144531 7.132812 -0.695312 6.53125 -0.375 C 5.925781 -0.0507812 5.238281 0.109375 4.46875 0.109375 Z M 4.46875 -1.640625 C 5.007812 -1.640625 5.453125 -1.820312 5.796875 -2.1875 C 6.148438 -2.550781 6.328125 -3.039062 6.328125 -3.65625 C 6.328125 -4.28125 6.148438 -4.773438 5.796875 -5.140625 C 5.453125 -5.503906 5.007812 -5.6875 4.46875 -5.6875 C 3.914062 -5.6875 3.460938 -5.503906 3.109375 -5.140625 C 2.753906 -4.773438 2.578125 -4.28125 2.578125 -3.65625 C 2.578125 -3.039062 2.753906 -2.550781 3.109375 -2.1875 C 3.460938 -1.820312 3.914062 -1.640625 4.46875 -1.640625 Z M 5.03125 -10.21875 L 7.3125 -10.21875 L 4.859375 -8.265625 L 3.1875 -8.265625 Z M 5.03125 -10.21875 "/></g></g></g><g fill="#ccebff" fill-opacity="1"><g transform="translate(257.057317, 291.066876)"><g><path d="M 8.4375 -10.09375 L 8.4375 0 L 6.40625 0 L 6.40625 -0.84375 C 5.882812 -0.207031 5.125 0.109375 4.125 0.109375 C 3.4375 0.109375 2.8125 -0.0390625 2.25 -0.34375 C 1.695312 -0.65625 1.257812 -1.097656 0.9375 -1.671875 C 0.625 -2.242188 0.46875 -2.90625 0.46875 -3.65625 C 0.46875 -4.414062 0.625 -5.078125 0.9375 -5.640625 C 1.257812 -6.210938 1.695312 -6.65625 2.25 -6.96875 C 2.8125 -7.28125 3.4375 -7.4375 4.125 -7.4375 C 5.0625 -7.4375 5.789062 -7.140625 6.3125 -6.546875 L 6.3125 -10.09375 Z M 4.484375 -1.640625 C 5.023438 -1.640625 5.472656 -1.820312 5.828125 -2.1875 C 6.179688 -2.550781 6.359375 -3.039062 6.359375 -3.65625 C 6.359375 -4.28125 6.179688 -4.773438 5.828125 -5.140625 C 5.472656 -5.503906 5.023438 -5.6875 4.484375 -5.6875 C 3.941406 -5.6875 3.492188 -5.503906 3.140625 -5.140625 C 2.785156 -4.773438 2.609375 -4.28125 2.609375 -3.65625 C 2.609375 -3.039062 2.785156 -2.550781 3.140625 -2.1875 C 3.492188 -1.820312 3.941406 -1.640625 4.484375 -1.640625 Z M 4.484375 -1.640625 "/></g></g></g><g fill="#ccebff" fill-opacity="1"><g transform="translate(266.47574, 291.066876)"><g><path d="M 8.359375 -7.328125 L 8.359375 0 L 6.34375 0 L 6.34375 -0.875 C 6.0625 -0.550781 5.722656 -0.304688 5.328125 -0.140625 C 4.941406 0.0234375 4.519531 0.109375 4.0625 0.109375 C 3.101562 0.109375 2.34375 -0.164062 1.78125 -0.71875 C 1.21875 -1.269531 0.9375 -2.09375 0.9375 -3.1875 L 0.9375 -7.328125 L 3.0625 -7.328125 L 3.0625 -3.5 C 3.0625 -2.320312 3.554688 -1.734375 4.546875 -1.734375 C 5.054688 -1.734375 5.460938 -1.894531 5.765625 -2.21875 C 6.078125 -2.550781 6.234375 -3.046875 6.234375 -3.703125 L 6.234375 -7.328125 Z M 8.359375 -7.328125 "/></g></g></g><g fill="#ccebff" fill-opacity="1"><g transform="translate(275.826115, 291.066876)"><g><path d="M 0.984375 -10.09375 L 3.109375 -10.09375 L 3.109375 0 L 0.984375 0 Z M 0.984375 -10.09375 "/></g></g></g><g fill="#ccebff" fill-opacity="1"><g transform="translate(279.922855, 291.066876)"><g><path d="M 4.46875 0.109375 C 3.695312 0.109375 3.003906 -0.0507812 2.390625 -0.375 C 1.773438 -0.695312 1.296875 -1.144531 0.953125 -1.71875 C 0.609375 -2.289062 0.4375 -2.9375 0.4375 -3.65625 C 0.4375 -4.382812 0.609375 -5.035156 0.953125 -5.609375 C 1.296875 -6.179688 1.773438 -6.628906 2.390625 -6.953125 C 3.003906 -7.273438 3.695312 -7.4375 4.46875 -7.4375 C 5.238281 -7.4375 5.925781 -7.273438 6.53125 -6.953125 C 7.132812 -6.628906 7.609375 -6.179688 7.953125 -5.609375 C 8.304688 -5.035156 8.484375 -4.382812 8.484375 -3.65625 C 8.484375 -2.9375 8.304688 -2.289062 7.953125 -1.71875 C 7.609375 -1.144531 7.132812 -0.695312 6.53125 -0.375 C 5.925781 -0.0507812 5.238281 0.109375 4.46875 0.109375 Z M 4.46875 -1.640625 C 5.007812 -1.640625 5.453125 -1.820312 5.796875 -2.1875 C 6.148438 -2.550781 6.328125 -3.039062 6.328125 -3.65625 C 6.328125 -4.28125 6.148438 -4.773438 5.796875 -5.140625 C 5.453125 -5.503906 5.007812 -5.6875 4.46875 -5.6875 C 3.914062 -5.6875 3.460938 -5.503906 3.109375 -5.140625 C 2.753906 -4.773438 2.578125 -4.28125 2.578125 -3.65625 C 2.578125 -3.039062 2.753906 -2.550781 3.109375 -2.1875 C 3.460938 -1.820312 3.914062 -1.640625 4.46875 -1.640625 Z M 4.46875 -1.640625 "/></g></g></g><g fill="#ccebff" fill-opacity="1"><g transform="translate(288.837693, 291.066876)"><g/></g></g><g fill="#ccebff" fill-opacity="1"><g transform="translate(292.689449, 291.066876)"><g><path d="M 3.796875 -5.953125 C 5.140625 -5.953125 6.128906 -5.679688 6.765625 -5.140625 C 7.410156 -4.609375 7.734375 -3.894531 7.734375 -3 C 7.734375 -2.414062 7.585938 -1.882812 7.296875 -1.40625 C 7.003906 -0.925781 6.5625 -0.546875 5.96875 -0.265625 C 5.375 0.015625 4.640625 0.15625 3.765625 0.15625 C 3.097656 0.15625 2.4375 0.0664062 1.78125 -0.109375 C 1.132812 -0.285156 0.585938 -0.535156 0.140625 -0.859375 L 1 -2.546875 C 1.363281 -2.273438 1.78125 -2.0625 2.25 -1.90625 C 2.726562 -1.757812 3.21875 -1.6875 3.71875 -1.6875 C 4.269531 -1.6875 4.703125 -1.796875 5.015625 -2.015625 C 5.335938 -2.234375 5.5 -2.535156 5.5 -2.921875 C 5.5 -3.328125 5.332031 -3.632812 5 -3.84375 C 4.664062 -4.0625 4.09375 -4.171875 3.28125 -4.171875 L 0.84375 -4.171875 L 1.328125 -9.53125 L 7.140625 -9.53125 L 7.140625 -7.75 L 3.171875 -7.75 L 3.015625 -5.953125 Z M 3.796875 -5.953125 "/></g></g></g><g fill="#ccebff" fill-opacity="1"><g transform="translate(300.787664, 291.066876)"><g><path d="M 7.65625 -1.796875 L 7.65625 0 L 0.453125 0 L 0.453125 -1.421875 L 4.125 -4.90625 C 4.507812 -5.269531 4.769531 -5.585938 4.90625 -5.859375 C 5.039062 -6.128906 5.109375 -6.394531 5.109375 -6.65625 C 5.109375 -7.039062 4.976562 -7.332031 4.71875 -7.53125 C 4.46875 -7.738281 4.09375 -7.84375 3.59375 -7.84375 C 3.175781 -7.84375 2.796875 -7.757812 2.453125 -7.59375 C 2.117188 -7.4375 1.84375 -7.203125 1.625 -6.890625 L 0.015625 -7.921875 C 0.390625 -8.472656 0.898438 -8.90625 1.546875 -9.21875 C 2.203125 -9.53125 2.953125 -9.6875 3.796875 -9.6875 C 4.503906 -9.6875 5.125 -9.570312 5.65625 -9.34375 C 6.1875 -9.113281 6.597656 -8.785156 6.890625 -8.359375 C 7.179688 -7.941406 7.328125 -7.445312 7.328125 -6.875 C 7.328125 -6.351562 7.21875 -5.863281 7 -5.40625 C 6.789062 -4.957031 6.375 -4.441406 5.75 -3.859375 L 3.546875 -1.796875 Z M 7.65625 -1.796875 "/></g></g></g><g fill="#ccebff" fill-opacity="1"><g transform="translate(235.128473, 348.19988)"><g><path d="M 9.796875 0 L 9.78125 -5.71875 L 6.984375 -1 L 5.984375 -1 L 3.203125 -5.59375 L 3.203125 0 L 1.125 0 L 1.125 -9.53125 L 2.953125 -9.53125 L 6.515625 -3.609375 L 10.03125 -9.53125 L 11.84375 -9.53125 L 11.875 0 Z M 9.796875 0 "/></g></g></g><g fill="#ccebff" fill-opacity="1"><g transform="translate(248.126441, 348.19988)"><g><path d="M 4.46875 0.109375 C 3.695312 0.109375 3.003906 -0.0507812 2.390625 -0.375 C 1.773438 -0.695312 1.296875 -1.144531 0.953125 -1.71875 C 0.609375 -2.289062 0.4375 -2.9375 0.4375 -3.65625 C 0.4375 -4.382812 0.609375 -5.035156 0.953125 -5.609375 C 1.296875 -6.179688 1.773438 -6.628906 2.390625 -6.953125 C 3.003906 -7.273438 3.695312 -7.4375 4.46875 -7.4375 C 5.238281 -7.4375 5.925781 -7.273438 6.53125 -6.953125 C 7.132812 -6.628906 7.609375 -6.179688 7.953125 -5.609375 C 8.304688 -5.035156 8.484375 -4.382812 8.484375 -3.65625 C 8.484375 -2.9375 8.304688 -2.289062 7.953125 -1.71875 C 7.609375 -1.144531 7.132812 -0.695312 6.53125 -0.375 C 5.925781 -0.0507812 5.238281 0.109375 4.46875 0.109375 Z M 4.46875 -1.640625 C 5.007812 -1.640625 5.453125 -1.820312 5.796875 -2.1875 C 6.148438 -2.550781 6.328125 -3.039062 6.328125 -3.65625 C 6.328125 -4.28125 6.148438 -4.773438 5.796875 -5.140625 C 5.453125 -5.503906 5.007812 -5.6875 4.46875 -5.6875 C 3.914062 -5.6875 3.460938 -5.503906 3.109375 -5.140625 C 2.753906 -4.773438 2.578125 -4.28125 2.578125 -3.65625 C 2.578125 -3.039062 2.753906 -2.550781 3.109375 -2.1875 C 3.460938 -1.820312 3.914062 -1.640625 4.46875 -1.640625 Z M 5.03125 -10.21875 L 7.3125 -10.21875 L 4.859375 -8.265625 L 3.1875 -8.265625 Z M 5.03125 -10.21875 "/></g></g></g><g fill="#ccebff" fill-opacity="1"><g transform="translate(257.041278, 348.19988)"><g><path d="M 8.4375 -10.09375 L 8.4375 0 L 6.40625 0 L 6.40625 -0.84375 C 5.882812 -0.207031 5.125 0.109375 4.125 0.109375 C 3.4375 0.109375 2.8125 -0.0390625 2.25 -0.34375 C 1.695312 -0.65625 1.257812 -1.097656 0.9375 -1.671875 C 0.625 -2.242188 0.46875 -2.90625 0.46875 -3.65625 C 0.46875 -4.414062 0.625 -5.078125 0.9375 -5.640625 C 1.257812 -6.210938 1.695312 -6.65625 2.25 -6.96875 C 2.8125 -7.28125 3.4375 -7.4375 4.125 -7.4375 C 5.0625 -7.4375 5.789062 -7.140625 6.3125 -6.546875 L 6.3125 -10.09375 Z M 4.484375 -1.640625 C 5.023438 -1.640625 5.472656 -1.820312 5.828125 -2.1875 C 6.179688 -2.550781 6.359375 -3.039062 6.359375 -3.65625 C 6.359375 -4.28125 6.179688 -4.773438 5.828125 -5.140625 C 5.472656 -5.503906 5.023438 -5.6875 4.484375 -5.6875 C 3.941406 -5.6875 3.492188 -5.503906 3.140625 -5.140625 C 2.785156 -4.773438 2.609375 -4.28125 2.609375 -3.65625 C 2.609375 -3.039062 2.785156 -2.550781 3.140625 -2.1875 C 3.492188 -1.820312 3.941406 -1.640625 4.484375 -1.640625 Z M 4.484375 -1.640625 "/></g></g></g><g fill="#ccebff" fill-opacity="1"><g transform="translate(266.459701, 348.19988)"><g><path d="M 8.359375 -7.328125 L 8.359375 0 L 6.34375 0 L 6.34375 -0.875 C 6.0625 -0.550781 5.722656 -0.304688 5.328125 -0.140625 C 4.941406 0.0234375 4.519531 0.109375 4.0625 0.109375 C 3.101562 0.109375 2.34375 -0.164062 1.78125 -0.71875 C 1.21875 -1.269531 0.9375 -2.09375 0.9375 -3.1875 L 0.9375 -7.328125 L 3.0625 -7.328125 L 3.0625 -3.5 C 3.0625 -2.320312 3.554688 -1.734375 4.546875 -1.734375 C 5.054688 -1.734375 5.460938 -1.894531 5.765625 -2.21875 C 6.078125 -2.550781 6.234375 -3.046875 6.234375 -3.703125 L 6.234375 -7.328125 Z M 8.359375 -7.328125 "/></g></g></g><g fill="#ccebff" fill-opacity="1"><g transform="translate(275.810076, 348.19988)"><g><path d="M 0.984375 -10.09375 L 3.109375 -10.09375 L 3.109375 0 L 0.984375 0 Z M 0.984375 -10.09375 "/></g></g></g><g fill="#ccebff" fill-opacity="1"><g transform="translate(279.906816, 348.19988)"><g><path d="M 4.46875 0.109375 C 3.695312 0.109375 3.003906 -0.0507812 2.390625 -0.375 C 1.773438 -0.695312 1.296875 -1.144531 0.953125 -1.71875 C 0.609375 -2.289062 0.4375 -2.9375 0.4375 -3.65625 C 0.4375 -4.382812 0.609375 -5.035156 0.953125 -5.609375 C 1.296875 -6.179688 1.773438 -6.628906 2.390625 -6.953125 C 3.003906 -7.273438 3.695312 -7.4375 4.46875 -7.4375 C 5.238281 -7.4375 5.925781 -7.273438 6.53125 -6.953125 C 7.132812 -6.628906 7.609375 -6.179688 7.953125 -5.609375 C 8.304688 -5.035156 8.484375 -4.382812 8.484375 -3.65625 C 8.484375 -2.9375 8.304688 -2.289062 7.953125 -1.71875 C 7.609375 -1.144531 7.132812 -0.695312 6.53125 -0.375 C 5.925781 -0.0507812 5.238281 0.109375 4.46875 0.109375 Z M 4.46875 -1.640625 C 5.007812 -1.640625 5.453125 -1.820312 5.796875 -2.1875 C 6.148438 -2.550781 6.328125 -3.039062 6.328125 -3.65625 C 6.328125 -4.28125 6.148438 -4.773438 5.796875 -5.140625 C 5.453125 -5.503906 5.007812 -5.6875 4.46875 -5.6875 C 3.914062 -5.6875 3.460938 -5.503906 3.109375 -5.140625 C 2.753906 -4.773438 2.578125 -4.28125 2.578125 -3.65625 C 2.578125 -3.039062 2.753906 -2.550781 3.109375 -2.1875 C 3.460938 -1.820312 3.914062 -1.640625 4.46875 -1.640625 Z M 4.46875 -1.640625 "/></g></g></g><g fill="#ccebff" fill-opacity="1"><g transform="translate(288.821654, 348.19988)"><g/></g></g><g fill="#ccebff" fill-opacity="1"><g transform="translate(292.67341, 348.19988)"><g><path d="M 3.796875 -5.953125 C 5.140625 -5.953125 6.128906 -5.679688 6.765625 -5.140625 C 7.410156 -4.609375 7.734375 -3.894531 7.734375 -3 C 7.734375 -2.414062 7.585938 -1.882812 7.296875 -1.40625 C 7.003906 -0.925781 6.5625 -0.546875 5.96875 -0.265625 C 5.375 0.015625 4.640625 0.15625 3.765625 0.15625 C 3.097656 0.15625 2.4375 0.0664062 1.78125 -0.109375 C 1.132812 -0.285156 0.585938 -0.535156 0.140625 -0.859375 L 1 -2.546875 C 1.363281 -2.273438 1.78125 -2.0625 2.25 -1.90625 C 2.726562 -1.757812 3.21875 -1.6875 3.71875 -1.6875 C 4.269531 -1.6875 4.703125 -1.796875 5.015625 -2.015625 C 5.335938 -2.234375 5.5 -2.535156 5.5 -2.921875 C 5.5 -3.328125 5.332031 -3.632812 5 -3.84375 C 4.664062 -4.0625 4.09375 -4.171875 3.28125 -4.171875 L 0.84375 -4.171875 L 1.328125 -9.53125 L 7.140625 -9.53125 L 7.140625 -7.75 L 3.171875 -7.75 L 3.015625 -5.953125 Z M 3.796875 -5.953125 "/></g></g></g><g fill="#ccebff" fill-opacity="1"><g transform="translate(300.771625, 348.19988)"><g><path d="M 4.984375 -5.640625 C 5.816406 -5.503906 6.453125 -5.191406 6.890625 -4.703125 C 7.335938 -4.222656 7.5625 -3.625 7.5625 -2.90625 C 7.5625 -2.351562 7.414062 -1.84375 7.125 -1.375 C 6.84375 -0.914062 6.398438 -0.546875 5.796875 -0.265625 C 5.203125 0.015625 4.476562 0.15625 3.625 0.15625 C 2.945312 0.15625 2.285156 0.0664062 1.640625 -0.109375 C 0.992188 -0.285156 0.441406 -0.535156 -0.015625 -0.859375 L 0.84375 -2.546875 C 1.207031 -2.273438 1.625 -2.0625 2.09375 -1.90625 C 2.570312 -1.757812 3.0625 -1.6875 3.5625 -1.6875 C 4.113281 -1.6875 4.546875 -1.789062 4.859375 -2 C 5.179688 -2.21875 5.34375 -2.519531 5.34375 -2.90625 C 5.34375 -3.6875 4.75 -4.078125 3.5625 -4.078125 L 2.5625 -4.078125 L 2.5625 -5.53125 L 4.515625 -7.75 L 0.46875 -7.75 L 0.46875 -9.53125 L 7.125 -9.53125 L 7.125 -8.09375 Z M 4.984375 -5.640625 "/></g></g></g><g fill="#ccebff" fill-opacity="1"><g transform="translate(236.932092, 404.309664)"><g><path d="M 9.796875 0 L 9.78125 -5.71875 L 6.984375 -1 L 5.984375 -1 L 3.203125 -5.59375 L 3.203125 0 L 1.125 0 L 1.125 -9.53125 L 2.953125 -9.53125 L 6.515625 -3.609375 L 10.03125 -9.53125 L 11.84375 -9.53125 L 11.875 0 Z M 9.796875 0 "/></g></g></g><g fill="#ccebff" fill-opacity="1"><g transform="translate(249.93006, 404.309664)"><g><path d="M 4.46875 0.109375 C 3.695312 0.109375 3.003906 -0.0507812 2.390625 -0.375 C 1.773438 -0.695312 1.296875 -1.144531 0.953125 -1.71875 C 0.609375 -2.289062 0.4375 -2.9375 0.4375 -3.65625 C 0.4375 -4.382812 0.609375 -5.035156 0.953125 -5.609375 C 1.296875 -6.179688 1.773438 -6.628906 2.390625 -6.953125 C 3.003906 -7.273438 3.695312 -7.4375 4.46875 -7.4375 C 5.238281 -7.4375 5.925781 -7.273438 6.53125 -6.953125 C 7.132812 -6.628906 7.609375 -6.179688 7.953125 -5.609375 C 8.304688 -5.035156 8.484375 -4.382812 8.484375 -3.65625 C 8.484375 -2.9375 8.304688 -2.289062 7.953125 -1.71875 C 7.609375 -1.144531 7.132812 -0.695312 6.53125 -0.375 C 5.925781 -0.0507812 5.238281 0.109375 4.46875 0.109375 Z M 4.46875 -1.640625 C 5.007812 -1.640625 5.453125 -1.820312 5.796875 -2.1875 C 6.148438 -2.550781 6.328125 -3.039062 6.328125 -3.65625 C 6.328125 -4.28125 6.148438 -4.773438 5.796875 -5.140625 C 5.453125 -5.503906 5.007812 -5.6875 4.46875 -5.6875 C 3.914062 -5.6875 3.460938 -5.503906 3.109375 -5.140625 C 2.753906 -4.773438 2.578125 -4.28125 2.578125 -3.65625 C 2.578125 -3.039062 2.753906 -2.550781 3.109375 -2.1875 C 3.460938 -1.820312 3.914062 -1.640625 4.46875 -1.640625 Z M 5.03125 -10.21875 L 7.3125 -10.21875 L 4.859375 -8.265625 L 3.1875 -8.265625 Z M 5.03125 -10.21875 "/></g></g></g><g fill="#ccebff" fill-opacity="1"><g transform="translate(258.844897, 404.309664)"><g><path d="M 8.4375 -10.09375 L 8.4375 0 L 6.40625 0 L 6.40625 -0.84375 C 5.882812 -0.207031 5.125 0.109375 4.125 0.109375 C 3.4375 0.109375 2.8125 -0.0390625 2.25 -0.34375 C 1.695312 -0.65625 1.257812 -1.097656 0.9375 -1.671875 C 0.625 -2.242188 0.46875 -2.90625 0.46875 -3.65625 C 0.46875 -4.414062 0.625 -5.078125 0.9375 -5.640625 C 1.257812 -6.210938 1.695312 -6.65625 2.25 -6.96875 C 2.8125 -7.28125 3.4375 -7.4375 4.125 -7.4375 C 5.0625 -7.4375 5.789062 -7.140625 6.3125 -6.546875 L 6.3125 -10.09375 Z M 4.484375 -1.640625 C 5.023438 -1.640625 5.472656 -1.820312 5.828125 -2.1875 C 6.179688 -2.550781 6.359375 -3.039062 6.359375 -3.65625 C 6.359375 -4.28125 6.179688 -4.773438 5.828125 -5.140625 C 5.472656 -5.503906 5.023438 -5.6875 4.484375 -5.6875 C 3.941406 -5.6875 3.492188 -5.503906 3.140625 -5.140625 C 2.785156 -4.773438 2.609375 -4.28125 2.609375 -3.65625 C 2.609375 -3.039062 2.785156 -2.550781 3.140625 -2.1875 C 3.492188 -1.820312 3.941406 -1.640625 4.484375 -1.640625 Z M 4.484375 -1.640625 "/></g></g></g><g fill="#ccebff" fill-opacity="1"><g transform="translate(268.26332, 404.309664)"><g><path d="M 8.359375 -7.328125 L 8.359375 0 L 6.34375 0 L 6.34375 -0.875 C 6.0625 -0.550781 5.722656 -0.304688 5.328125 -0.140625 C 4.941406 0.0234375 4.519531 0.109375 4.0625 0.109375 C 3.101562 0.109375 2.34375 -0.164062 1.78125 -0.71875 C 1.21875 -1.269531 0.9375 -2.09375 0.9375 -3.1875 L 0.9375 -7.328125 L 3.0625 -7.328125 L 3.0625 -3.5 C 3.0625 -2.320312 3.554688 -1.734375 4.546875 -1.734375 C 5.054688 -1.734375 5.460938 -1.894531 5.765625 -2.21875 C 6.078125 -2.550781 6.234375 -3.046875 6.234375 -3.703125 L 6.234375 -7.328125 Z M 8.359375 -7.328125 "/></g></g></g><g fill="#ccebff" fill-opacity="1"><g transform="translate(277.613695, 404.309664)"><g><path d="M 0.984375 -10.09375 L 3.109375 -10.09375 L 3.109375 0 L 0.984375 0 Z M 0.984375 -10.09375 "/></g></g></g><g fill="#ccebff" fill-opacity="1"><g transform="translate(281.710435, 404.309664)"><g><path d="M 4.46875 0.109375 C 3.695312 0.109375 3.003906 -0.0507812 2.390625 -0.375 C 1.773438 -0.695312 1.296875 -1.144531 0.953125 -1.71875 C 0.609375 -2.289062 0.4375 -2.9375 0.4375 -3.65625 C 0.4375 -4.382812 0.609375 -5.035156 0.953125 -5.609375 C 1.296875 -6.179688 1.773438 -6.628906 2.390625 -6.953125 C 3.003906 -7.273438 3.695312 -7.4375 4.46875 -7.4375 C 5.238281 -7.4375 5.925781 -7.273438 6.53125 -6.953125 C 7.132812 -6.628906 7.609375 -6.179688 7.953125 -5.609375 C 8.304688 -5.035156 8.484375 -4.382812 8.484375 -3.65625 C 8.484375 -2.9375 8.304688 -2.289062 7.953125 -1.71875 C 7.609375 -1.144531 7.132812 -0.695312 6.53125 -0.375 C 5.925781 -0.0507812 5.238281 0.109375 4.46875 0.109375 Z M 4.46875 -1.640625 C 5.007812 -1.640625 5.453125 -1.820312 5.796875 -2.1875 C 6.148438 -2.550781 6.328125 -3.039062 6.328125 -3.65625 C 6.328125 -4.28125 6.148438 -4.773438 5.796875 -5.140625 C 5.453125 -5.503906 5.007812 -5.6875 4.46875 -5.6875 C 3.914062 -5.6875 3.460938 -5.503906 3.109375 -5.140625 C 2.753906 -4.773438 2.578125 -4.28125 2.578125 -3.65625 C 2.578125 -3.039062 2.753906 -2.550781 3.109375 -2.1875 C 3.460938 -1.820312 3.914062 -1.640625 4.46875 -1.640625 Z M 4.46875 -1.640625 "/></g></g></g><g fill="#ccebff" fill-opacity="1"><g transform="translate(290.625273, 404.309664)"><g/></g></g><g fill="#ccebff" fill-opacity="1"><g transform="translate(294.477029, 404.309664)"><g><path d="M 3.796875 -5.953125 C 5.140625 -5.953125 6.128906 -5.679688 6.765625 -5.140625 C 7.410156 -4.609375 7.734375 -3.894531 7.734375 -3 C 7.734375 -2.414062 7.585938 -1.882812 7.296875 -1.40625 C 7.003906 -0.925781 6.5625 -0.546875 5.96875 -0.265625 C 5.375 0.015625 4.640625 0.15625 3.765625 0.15625 C 3.097656 0.15625 2.4375 0.0664062 1.78125 -0.109375 C 1.132812 -0.285156 0.585938 -0.535156 0.140625 -0.859375 L 1 -2.546875 C 1.363281 -2.273438 1.78125 -2.0625 2.25 -1.90625 C 2.726562 -1.757812 3.21875 -1.6875 3.71875 -1.6875 C 4.269531 -1.6875 4.703125 -1.796875 5.015625 -2.015625 C 5.335938 -2.234375 5.5 -2.535156 5.5 -2.921875 C 5.5 -3.328125 5.332031 -3.632812 5 -3.84375 C 4.664062 -4.0625 4.09375 -4.171875 3.28125 -4.171875 L 0.84375 -4.171875 L 1.328125 -9.53125 L 7.140625 -9.53125 L 7.140625 -7.75 L 3.171875 -7.75 L 3.015625 -5.953125 Z M 3.796875 -5.953125 "/></g></g></g><g fill="#ccebff" fill-opacity="1"><g transform="translate(302.575244, 404.309664)"><g><path d="M 9.25 -2 L 7.703125 -2 L 7.703125 0 L 5.546875 0 L 5.546875 -2 L 0.421875 -2 L 0.421875 -3.484375 L 4.90625 -9.53125 L 7.234375 -9.53125 L 3.0625 -3.796875 L 5.625 -3.796875 L 5.625 -5.578125 L 7.703125 -5.578125 L 7.703125 -3.796875 L 9.25 -3.796875 Z M 9.25 -2 "/></g></g></g></svg>